<?xml version="1.0" encoding="UTF-8"?>
<svg version="1.1" xmlns="http://www.w3.org/2000/svg" width="2000" height="1098">
<path d="M0 0 C1.11890625 0.19335938 2.2378125 0.38671875 3.390625 0.5859375 C54.510217 9.62673871 103.23068122 30.71941072 144 63 C145.48886719 64.16982422 145.48886719 64.16982422 147.0078125 65.36328125 C152.92230236 70.10666842 158.52896085 75.14133354 164.078125 80.30078125 C166.78878029 82.80487591 169.5427361 85.24926845 172.3125 87.6875 C175.86286557 90.8766201 179.06594456 94.17461998 182.140625 97.8203125 C185.24930669 101.46452339 188.52286625 104.95963722 191.765625 108.484375 C197 114.37762238 197 114.37762238 197 118 C195.3034668 119.59399414 195.3034668 119.59399414 192.94921875 121.28515625 C192.10552734 121.89810547 191.26183594 122.51105469 190.39257812 123.14257812 C189.49990234 123.77615234 188.60722656 124.40972656 187.6875 125.0625 C186.36588867 126.01866211 186.36588867 126.01866211 185.01757812 126.99414062 C175.30977509 134 175.30977509 134 172 134 C170.265625 132.15625 170.265625 132.15625 168.25 129.5 C159.22004118 118.09838804 149.1388554 107.36120498 138 98 C137.21230225 97.3198584 137.21230225 97.3198584 136.40869141 96.62597656 C119.27682898 81.86428727 100.1413949 69.26759316 80 59 C79.12553223 58.55317871 78.25106445 58.10635742 77.35009766 57.64599609 C10.33837536 23.7602499 -67.47361696 18.10997575 -139.07421875 40.5546875 C-171.80472346 51.30250528 -202.98567622 67.60369931 -230 89 C-230.89460937 89.70253906 -231.78921875 90.40507812 -232.7109375 91.12890625 C-247.49724751 102.97066455 -261.25864788 116.12762064 -273 131 C-273.88457582 132.09443015 -274.7700254 133.18815453 -275.65625 134.28125 C-298.30582585 162.39699824 -314.781389 194.76711289 -326 229 C-326.29245605 229.88864746 -326.58491211 230.77729492 -326.88623047 231.69287109 C-350.17494629 303.89200719 -339.56555697 382.02691599 -306 449 C-294.22298066 471.78361566 -279.27478279 492.1136581 -262 511 C-261.08911758 512.01497377 -260.178991 513.03062626 -259.26953125 514.046875 C-254.13909038 519.75466811 -248.90997944 525.09081922 -243 530 C-242.08089844 530.80695312 -241.16179687 531.61390625 -240.21484375 532.4453125 C-213.14004176 556.12555909 -180.73635801 573.87778322 -147 586 C-146.23204102 586.28423828 -145.46408203 586.56847656 -144.67285156 586.86132812 C-124.53982556 594.29148001 -103.29569518 598.62193343 -82 601 C-81.21810303 601.0942627 -80.43620605 601.18852539 -79.63061523 601.28564453 C-36.35160378 605.94216795 6.9863085 599.38344901 47.73876953 584.73095703 C50 584 50 584 52 584 C52 574.76 52 565.52 52 556 C49.15375 557.03125 46.3075 558.0625 43.375 559.125 C28.79330428 564.27254628 14.0211024 568.42020932 -1.1875 571.25 C-1.9923584 571.40106201 -2.7972168 571.55212402 -3.62646484 571.70776367 C-19.41109883 574.46393425 -35.18755933 575.38096238 -51.1875 575.3125 C-52.52587921 575.30976578 -52.52587921 575.30976578 -53.89129639 575.30697632 C-68.11443941 575.25825714 -81.98388961 574.58549609 -96 572 C-96.91700684 571.83902832 -97.83401367 571.67805664 -98.77880859 571.51220703 C-122.15311959 567.30894952 -144.73309966 559.52143012 -166 549 C-166.87382324 548.56929199 -167.74764648 548.13858398 -168.64794922 547.69482422 C-180.31407032 541.89000334 -191.41537007 535.60623006 -202 528 C-203.03253906 527.26136719 -204.06507813 526.52273438 -205.12890625 525.76171875 C-219.75394967 515.02651739 -234.39041762 502.99103518 -246 489 C-246.83015625 488.04609375 -247.6603125 487.0921875 -248.515625 486.109375 C-294.14823376 433.5659225 -315.98943601 364.49324111 -311.77734375 295.34472656 C-307.63897308 242.75536128 -287.60375485 189.26013786 -253 149 C-252.11355911 147.93183873 -251.22823036 146.86275398 -250.34375 145.79296875 C-239.97428113 133.35377683 -228.81610178 121.93566923 -216 112 C-214.56333984 110.83791016 -214.56333984 110.83791016 -213.09765625 109.65234375 C-190.15673608 91.39796717 -163.62904231 77.6171606 -136 68 C-135.07541992 67.67805664 -134.15083984 67.35611328 -133.19824219 67.02441406 C-68.66231553 45.03222699 3.45920276 51.02615191 64.52612305 80.65771484 C94.92915603 95.81659215 134.30726665 120.79031799 152 151 C151.73483517 153.55012989 151.25580065 154.73054788 149.48120117 156.59985352 C148.52177612 157.35673462 148.52177612 157.35673462 147.54296875 158.12890625 C146.84236328 158.68900391 146.14175781 159.24910156 145.41992188 159.82617188 C144.68322266 160.39916016 143.94652344 160.97214844 143.1875 161.5625 C142.46240234 162.13935547 141.73730469 162.71621094 140.99023438 163.31054688 C139.00311344 164.88679011 137.00857437 166.45120427 135 168 C134.32235596 168.55679443 133.64471191 169.11358887 132.9465332 169.68725586 C131 171 131 171 128 171 C126.37109375 169.2265625 126.37109375 169.2265625 124.4375 166.625 C113.70873225 153.10046216 101.00103093 141.08024014 87 131 C85.40285156 129.83791016 85.40285156 129.83791016 83.7734375 128.65234375 C32.80637493 92.50417163 -28.32901392 78.08423455 -90 88 C-136.88161864 96.16295435 -178.61930789 118.50541427 -213 151 C-213.85722656 151.80308594 -214.71445312 152.60617188 -215.59765625 153.43359375 C-222.4772538 160.07333211 -228.26436191 167.38058754 -234 175 C-234.72316406 175.95132813 -235.44632813 176.90265625 -236.19140625 177.8828125 C-260.29293171 210.23828504 -275.47854583 248.95401969 -280 289 C-280.0942627 289.83321777 -280.18852539 290.66643555 -280.28564453 291.52490234 C-286.58598988 353.16459596 -266.97142696 413.4789306 -228.625 461.625 C-195.1198995 501.40853374 -149.93747851 528.58894647 -99.0625 539.875 C-98.20084229 540.06618408 -97.33918457 540.25736816 -96.45141602 540.4543457 C-81.31348424 543.58129026 -66.28794177 544.37925437 -50.875 544.3125 C-49.97514374 544.31034485 -49.07528748 544.3081897 -48.14816284 544.30596924 C-34.23945108 544.25263959 -20.67637139 543.73429948 -7 541 C-5.96423828 540.79600586 -4.92847656 540.59201172 -3.86132812 540.38183594 C15.34715132 536.49373182 32.91637267 530.53484472 51 523 C51.33 513.76 51.66 504.52 52 495 C49.793125 496.010625 47.58625 497.02125 45.3125 498.0625 C28.48701374 505.50823082 11.03530537 510.49240317 -7 514 C-7.79728516 514.16516113 -8.59457031 514.33032227 -9.41601562 514.50048828 C-23.02642842 517.23558163 -36.7340237 517.31127293 -50.5625 517.375 C-51.46431 517.38294586 -52.36612 517.39089172 -53.29525757 517.39907837 C-109.30218813 517.77770566 -158.81590943 494.33831699 -198.5625 455.625 C-203.40514194 450.69769649 -207.81039682 445.48988112 -212 440 C-212.45246094 439.40751465 -212.90492188 438.8150293 -213.37109375 438.20458984 C-240.45475103 402.28571509 -254.21213452 360.07438802 -254.25 315.25 C-254.25067474 314.52656403 -254.25134949 313.80312805 -254.25204468 313.05776978 C-254.16737404 255.52842147 -230.09223977 205.82317114 -189.78637695 165.53735352 C-183.91586 159.78055824 -177.76681011 154.68934672 -171 150 C-170.36900391 149.56236328 -169.73800781 149.12472656 -169.08789062 148.67382812 C-123.29443836 117.29930544 -68.84120172 105.2914971 -14 115 C25.75182529 122.49835174 60.87609317 141.04260479 90 169 C90.49306641 169.47115234 90.98613281 169.94230469 91.49414062 170.42773438 C103.29795152 181.76743737 103.29795152 181.76743737 107 188 C107 188.66 107 189.32 107 190 C105.05463642 191.64468915 103.10679682 193.17464705 101.0625 194.6875 C99.8722256 195.58440955 98.68212242 196.48154636 97.4921875 197.37890625 C96.90147461 197.82121582 96.31076172 198.26352539 95.70214844 198.71923828 C93.34293625 200.49439994 91.01418812 202.30750721 88.6875 204.125 C87.96949219 204.68445313 87.25148438 205.24390625 86.51171875 205.8203125 C86.01285156 206.20960938 85.51398438 206.59890625 85 207 C81.19163075 205.45747973 79.01882086 203.10878844 76.3125 200.0625 C75.52488281 199.18722656 74.73726562 198.31195313 73.92578125 197.41015625 C72 195 72 195 71 192 C69.68272905 191.3021322 68.34694404 190.63872059 67 190 C65.33520508 188.4777832 65.33520508 188.4777832 63.70703125 186.73828125 C52.98055444 175.71535119 39.58769322 167.95538297 26 161 C25.35708008 160.66629395 24.71416016 160.33258789 24.05175781 159.98876953 C-16.55858943 139.1281677 -65.0723993 138.10500252 -108.06738281 151.65136719 C-152.2303717 166.05655469 -187.16738824 200.85117179 -207.9296875 241.63671875 C-211.29327369 248.52266719 -213.75132453 255.68560759 -216 263 C-216.37898437 264.22074219 -216.75796875 265.44148438 -217.1484375 266.69921875 C-218.22491619 270.44261269 -219.16550639 274.19686747 -220 278 C-220.15098145 278.67675781 -220.30196289 279.35351562 -220.45751953 280.05078125 C-229.43965094 322.45186757 -221.24156688 369.88633659 -197.86328125 406.3425293 C-186.93791256 422.82455053 -173.73083365 437.97842542 -158 450 C-157.030625 450.79664063 -156.06125 451.59328125 -155.0625 452.4140625 C-127.94186075 474.52781451 -92.67970057 485.69594545 -58 487 C-56.95457031 487.04125 -55.90914062 487.0825 -54.83203125 487.125 C-18.46708528 487.82014831 15.85678609 478.36769402 48.04248047 461.8828125 C50 461 50 461 52 461 C52 451.76 52 442.52 52 433 C49.380625 434.464375 46.76125 435.92875 44.0625 437.4375 C2.96506988 459.47188316 -49.86681236 467.24491224 -95 454 C-132.458325 442.4333178 -163.85837898 414.65889857 -182.1418457 380.20141602 C-197.0425863 350.20341613 -201.11116777 312.57656001 -193 280 C-192.8443457 279.32904297 -192.68869141 278.65808594 -192.52832031 277.96679688 C-188.34777332 260.22659146 -180.14747461 243.38640218 -169 229 C-168.32839844 228.10796875 -167.65679688 227.2159375 -166.96484375 226.296875 C-143.75378638 196.62142968 -111.40093029 176.84276332 -74.125 170.6875 C-34.61627825 166.26932036 5.2370835 174.47482442 36.91796875 199.28515625 C39.64359837 201.48846548 42.32683556 203.73352936 45 206 C45.65871094 206.53496094 46.31742188 207.06992187 46.99609375 207.62109375 C51.50099238 211.32333783 55.31129 215.48954767 59 220 C59.58265625 220.67804688 60.1653125 221.35609375 60.765625 222.0546875 C61.17296875 222.69664062 61.5803125 223.33859375 62 224 C60.68849515 227.93451456 58.84269924 228.83582833 55.5 231.25 C54.41093686 232.04485892 53.32240081 232.84044049 52.234375 233.63671875 C51.69103516 234.03165527 51.14769531 234.4265918 50.58789062 234.83349609 C46.99557307 237.47250183 43.50528068 240.24711543 40 243 C36.84164893 241.60249952 34.67727175 239.94801766 32.25 237.5 C31.63640625 236.8915625 31.0228125 236.283125 30.390625 235.65625 C29 234 29 234 29 232 C28.42894531 231.75378906 27.85789062 231.50757813 27.26953125 231.25390625 C24.63007863 229.79562004 22.84176687 228.04711885 20.6875 225.9375 C-2.09592308 205.12797114 -31.65239045 200.03775824 -61.47460938 200.81640625 C-93.444969 202.48134465 -120.0668824 219.86408644 -141 243 C-143.63712681 246.19328713 -145.86410406 249.45647799 -148 253 C-148.64066406 253.98484375 -149.28132812 254.9696875 -149.94140625 255.984375 C-160.94856872 273.77963577 -165.36318952 293.50784848 -165.3125 314.25 C-165.32861328 315.55324219 -165.34472656 316.85648437 -165.36132812 318.19921875 C-165.37370161 343.16891383 -156.77041442 368.28706654 -140 387 C-138.93652344 388.24136719 -138.93652344 388.24136719 -137.8515625 389.5078125 C-117.9370531 412.35709171 -91.27836301 426.33970452 -61 429 C-30.47638987 430.79618377 0.64137692 425.27557741 27.875 411.1875 C28.5865625 410.82188965 29.298125 410.4562793 30.03125 410.07958984 C31.46732215 409.30313174 32.88249057 408.4867535 34.27398682 407.63298035 C36.29819033 406.42040934 38.3762513 405.2968316 40.47747803 404.22325134 C45.03146583 401.69144991 49.8014668 399.02108399 51.80095291 393.98107719 C53.05282898 388.12160832 52.75465306 382.16510288 52.5859375 376.2109375 C52.58225811 374.29709064 52.58476759 372.38322282 52.59317017 370.46939087 C52.59869796 365.46000837 52.52081035 360.4553509 52.42486572 355.44702148 C52.34173288 350.32555019 52.33839646 345.20407521 52.328125 340.08203125 C52.29636058 330.05269961 52.16899987 320.02795886 52 310 C61.9 310 71.8 310 82 310 C82 407.02 82 504.04 82 604 C10.65738277 639.67130861 -76.90172608 641.94657493 -151.859375 617.05029297 C-189.76521403 604.1772292 -225.38397563 584.86672419 -256 559 C-257.06473287 558.1219454 -258.12985426 557.24436177 -259.1953125 556.3671875 C-272.68545355 545.1536172 -285.23520123 532.86552885 -296 519 C-296.92397097 517.87374152 -297.85127752 516.75021428 -298.78125 515.62890625 C-310.75433505 501.11205308 -320.77260781 485.37591628 -330 469 C-330.37189453 468.34805664 -330.74378906 467.69611328 -331.12695312 467.02441406 C-355.16158307 424.61410143 -369.04126239 374.75235833 -370 326 C-370.02046387 325.17113281 -370.04092773 324.34226562 -370.06201172 323.48828125 C-371.67690308 249.49689526 -347.81199942 176.25841361 -302 118 C-301.21882812 117.00484375 -300.43765625 116.0096875 -299.6328125 114.984375 C-285.70872498 97.64120549 -269.80688671 80.38638327 -252 67 C-250.76913164 66.05260229 -249.53869596 65.10464227 -248.30859375 64.15625 C-205.17392652 31.12320569 -155.5301342 9.39047816 -102 0 C-101.08492676 -0.16516113 -100.16985352 -0.33032227 -99.22705078 -0.50048828 C-67.59248122 -5.92339712 -31.57279279 -5.68804883 0 0 Z " fill="#49264E" transform="translate(1044,72)"/>
<path d="M0 0 C9.57 0 19.14 0 29 0 C29 66.99 29 133.98 29 203 C95.66 203 162.32 203 231 203 C231 136.01 231 69.02 231 0 C240.9 0 250.8 0 261 0 C261 191.07 261 382.14 261 579 C251.1 579 241.2 579 231 579 C231 502.77 231 426.54 231 348 C164.34 348 97.68 348 29 348 C29 424.23 29 500.46 29 579 C19.43 579 9.86 579 0 579 C0 387.93 0 196.86 0 0 Z M29 232 C29 241.24 29 250.48 29 260 C95.66 260 162.32 260 231 260 C231 250.76 231 241.52 231 232 C164.34 232 97.68 232 29 232 Z M29 290 C29 299.24 29 308.48 29 318 C95.66 318 162.32 318 231 318 C231 308.76 231 299.52 231 290 C164.34 290 97.68 290 29 290 Z " fill="#49264E" transform="translate(1543,97)"/>
<path d="M0 0 C1.56696706 0.04014958 3.13403222 0.07664785 4.70117188 0.109375 C8.53237392 0.19733502 12.35886332 0.33523206 16.1875 0.5 C14.90025652 4.64552912 13.3398996 8.38116796 11.31640625 12.21875 C10.74760742 13.30478516 10.17880859 14.39082031 9.59277344 15.50976562 C8.9846582 16.66154297 8.37654297 17.81332031 7.75 19 C6.47258655 21.43610511 5.19885323 23.87412377 3.92578125 26.3125 C3.60692963 26.92250854 3.288078 27.53251709 2.95956421 28.16101074 C0.04927093 33.73990366 -2.76847743 39.3622247 -5.5625 45 C-8.83265713 51.58873479 -12.17066125 58.13095521 -15.625 64.625 C-19.82201869 72.51688801 -23.83323971 80.4967746 -27.8125 88.5 C-32.12334136 97.17003506 -36.5027036 105.79356934 -41.0546875 114.33984375 C-44.58798176 121.00361371 -47.9550582 127.74622336 -51.3125 134.5 C-55.04293434 142.00408251 -58.81039827 149.47846298 -62.75 156.875 C-66.90756357 164.68243785 -70.87465044 172.58015871 -74.8125 180.5 C-79.12335286 189.17002916 -83.5027035 197.79356915 -88.0546875 206.33984375 C-92.17854147 214.11740547 -96.07784294 222.00476555 -99.99633789 229.88720703 C-103.56925715 237.05826986 -107.23958038 244.16628543 -111.00390625 251.23828125 C-114.55276876 257.93661659 -117.938235 264.71233107 -121.3125 271.5 C-125.04297128 279.00416308 -128.81263345 286.47722647 -132.75 293.875 C-136.72119896 301.3825646 -140.66288222 308.90555729 -144.52371216 316.47052002 C-145.16996936 317.73119731 -145.8211736 318.98935192 -146.47750854 320.24481201 C-147.398041 322.00789215 -148.29901842 323.78113994 -149.19921875 325.5546875 C-149.99138794 327.09358643 -149.99138794 327.09358643 -150.79956055 328.66357422 C-152.4604088 333.31426956 -151.03137192 336.16315035 -149.02172852 340.43798828 C-148.25124213 341.98524342 -147.47403175 343.52916194 -146.69140625 345.0703125 C-146.27261703 345.90601776 -145.85382782 346.74172302 -145.42234802 347.60275269 C-144.53151896 349.37769077 -143.63781375 351.15118783 -142.74145508 352.92333984 C-141.40563947 355.56442176 -140.07794316 358.20944261 -138.75195312 360.85546875 C-134.0441187 370.22768168 -129.23550144 379.54080139 -124.32972717 388.81082153 C-120.71395783 395.65433039 -117.24315443 402.56163197 -113.8125 409.5 C-109.5063625 418.17231342 -105.12223016 426.7936937 -100.5703125 435.33984375 C-96.44645853 443.11740547 -92.54715706 451.00476555 -88.62866211 458.88720703 C-85.43312537 465.30084055 -82.17935576 471.67472672 -78.8125 478 C-74.85300633 485.43865532 -71.06361861 492.95425263 -67.3125 500.5 C-63.58206813 508.0040838 -59.81460171 515.47846301 -55.875 522.875 C-51.39549831 531.28700152 -47.14046071 539.8067731 -42.89776611 548.33972168 C-38.89013146 556.39580577 -34.80025266 564.39820112 -30.5703125 572.33984375 C-26.44569135 580.11885237 -22.54571227 588.00770565 -18.62646484 595.89160156 C-15.08050771 603.00852405 -11.43875658 610.06289496 -7.70019531 617.08007812 C-3.24486723 625.48811872 0.97174257 634.01630705 5.19116211 642.54443359 C8.3510889 648.91149769 11.60960552 655.18699337 15.11230469 661.37304688 C16.1875 663.5 16.1875 663.5 16.1875 665.5 C5.2975 665.5 -5.5925 665.5 -16.8125 665.5 C-24.81735786 651.11152131 -32.34507429 636.56898442 -39.66503906 621.82617188 C-43.72175233 613.65933039 -47.841547 605.53981011 -52.13720703 597.49536133 C-56.14398523 589.95493316 -59.92700306 582.30330068 -63.72833252 574.65808105 C-67.73560008 566.60272944 -71.82513252 558.60107569 -76.0546875 550.66015625 C-80.17854147 542.88259453 -84.07784294 534.99523445 -87.99633789 527.11279297 C-91.19187463 520.69915945 -94.44564424 514.32527328 -97.8125 508 C-101.77199367 500.56134468 -105.56138139 493.04574737 -109.3125 485.5 C-113.04293187 477.9959162 -116.81039829 470.52153699 -120.75 463.125 C-125.22950169 454.71299848 -129.48453929 446.1932269 -133.72723389 437.66027832 C-137.73486854 429.60419423 -141.82474734 421.60179888 -146.0546875 413.66015625 C-150.17930865 405.88114763 -154.07928773 397.99229435 -157.99853516 390.10839844 C-161.17265767 383.73776759 -164.40652979 377.4082268 -167.75 371.125 C-168.9591069 368.8348393 -170.1649243 366.54299258 -171.36865234 364.25 C-172.4549751 362.18095375 -173.54436391 360.11351685 -174.63525391 358.046875 C-176.30132011 354.88369345 -177.94546547 351.70975492 -179.5786438 348.52947998 C-180.23030707 347.26803583 -180.88834182 346.00986124 -181.552948 344.75518799 C-182.48446725 342.99405325 -183.39118671 341.21986946 -184.296875 339.4453125 C-184.83022461 338.41937988 -185.36357422 337.39344727 -185.91308594 336.33642578 C-186.8125 333.5 -186.8125 333.5 -186.26074219 331.21875 C-185.78282227 330.3215625 -185.30490234 329.424375 -184.8125 328.5 C-184.11457227 327.06589564 -183.41886359 325.63071053 -182.72460938 324.19482422 C-181.87067362 322.48035576 -181.01440606 320.76704743 -180.15625 319.0546875 C-179.46360046 317.66795334 -179.46360046 317.66795334 -178.75695801 316.25320435 C-177.77613057 314.29086931 -176.79429375 312.32903851 -175.81152344 310.36767578 C-174.34274729 307.43538621 -172.87815585 304.50103616 -171.4140625 301.56640625 C-166.46268058 291.6604988 -161.43192421 281.80519145 -156.24780273 272.01901245 C-152.83090236 265.56272631 -149.54749465 259.04959415 -146.3125 252.5 C-142.5840247 244.99497529 -138.81457355 237.52148412 -134.875 230.125 C-130.71743643 222.31756215 -126.75034956 214.41984129 -122.8125 206.5 C-118.50164714 197.82997084 -114.1222965 189.20643085 -109.5703125 180.66015625 C-106.03701824 173.99638629 -102.6699418 167.25377664 -99.3125 160.5 C-95.58206566 152.99591749 -91.81460173 145.52153702 -87.875 138.125 C-83.71743643 130.31756215 -79.75034956 122.41984129 -75.8125 114.5 C-71.50164714 105.82997084 -67.1222965 97.20643085 -62.5703125 88.66015625 C-59.03701824 81.99638629 -55.6699418 75.25377664 -52.3125 68.5 C-48.21168047 60.25085652 -44.03768875 52.05462985 -39.70239258 43.92651367 C-37.15034709 39.11433509 -34.6813419 34.26476664 -32.2578125 29.38671875 C-31.79268501 28.4511615 -31.79268501 28.4511615 -31.31816101 27.4967041 C-29.77930603 24.39823614 -28.24638426 21.29698933 -26.72094727 18.19189453 C-25.60743961 15.94197605 -24.47169653 13.7028834 -23.31079102 11.47705078 C-21.79517118 8.61216974 -21.79517118 8.61216974 -20.87475586 5.90966797 C-17.34934162 -2.47465053 -7.67068514 -0.33988614 0 0 Z " fill="#49264E" transform="translate(489.8125,10.5)"/>
<path d="M0 0 C1.39120471 0.00015906 2.78241534 0.00585033 4.17358398 0.01586914 C4.90463852 0.01728409 5.63569305 0.01869904 6.38890076 0.02015686 C8.73253406 0.02577131 11.07607313 0.03832617 13.41967773 0.05102539 C15.00496282 0.05603853 16.59024939 0.06060176 18.17553711 0.06469727 C22.06945383 0.07574542 25.96329979 0.09301967 29.85717773 0.11352539 C28.37523779 4.98999847 26.36453611 9.37577771 24.07592773 13.90649414 C23.70625381 14.64574631 23.3365799 15.38499847 22.95570374 16.14665222 C21.76039001 18.53357447 20.55903058 20.91738991 19.35717773 23.30102539 C18.53013892 24.94825604 17.70323505 26.59555444 16.87646484 28.24291992 C12.42990126 37.08826824 7.93306266 45.90242498 3.27319336 54.63769531 C-0.29305771 61.33673472 -3.66417917 68.12856102 -7.0390625 74.92553711 C-10.38598158 81.647694 -13.85071204 88.29853694 -17.37329102 94.92993164 C-20.55688914 100.94562651 -23.61605636 107.0176019 -26.64282227 113.11352539 C-30.44821605 120.77760979 -34.35924548 128.37333163 -38.37329102 135.92993164 C-41.55688914 141.94562651 -44.61605636 148.0176019 -47.64282227 154.11352539 C-51.44821605 161.77760979 -55.35924548 169.37333163 -59.37329102 176.92993164 C-62.55688914 182.94562651 -65.61605636 189.0176019 -68.64282227 195.11352539 C-72.44821605 202.77760979 -76.35924548 210.37333163 -80.37329102 217.92993164 C-83.55688914 223.94562651 -86.61605636 230.0176019 -89.64282227 236.11352539 C-93.44821605 243.77760979 -97.35924548 251.37333163 -101.37329102 258.92993164 C-104.55688916 264.94562657 -107.61605342 271.0176034 -110.64282227 277.11352539 C-114.03828618 283.95193393 -117.49776708 290.74624569 -121.08032227 297.48852539 C-125.05584794 304.99012732 -128.94029744 312.53530871 -132.76782227 320.11352539 C-133.30141357 321.15943848 -133.83500488 322.20535156 -134.38476562 323.28295898 C-134.87468994 324.2582959 -135.36461426 325.23363281 -135.86938477 326.23852539 C-136.52801514 327.54176758 -136.52801514 327.54176758 -137.19995117 328.87133789 C-138.33663985 331.16903728 -138.33663985 331.16903728 -138.14282227 334.11352539 C-136.93309376 336.80495708 -135.67362856 339.42285265 -134.33813477 342.05102539 C-133.94338959 342.83900513 -133.54864441 343.62698486 -133.14193726 344.43884277 C-131.85659552 347.00015361 -130.56245734 349.5569011 -129.26782227 352.11352539 C-128.38403275 353.86922071 -127.5005693 355.62508021 -126.61743164 357.38110352 C-122.00043093 366.54578253 -117.3410095 375.68519528 -112.50854492 384.73852539 C-108.95633311 391.40455788 -105.60316029 398.16547509 -102.24414062 404.93041992 C-99.30869504 410.82612204 -96.29635142 416.67303144 -93.20532227 422.48852539 C-88.86362066 430.6586923 -84.72278466 438.92080795 -80.60620117 447.20629883 C-77.12177125 454.20198778 -73.52948582 461.13064395 -69.86157227 468.03149414 C-66.20449012 474.93671954 -62.7228613 481.92432022 -59.24804688 488.92260742 C-56.29058342 494.86253138 -53.25558572 500.75362466 -50.14282227 506.61352539 C-46.0487404 514.32079696 -42.12931773 522.10570959 -38.24829102 529.92211914 C-35.29074461 535.86220529 -32.2556712 541.75346375 -29.14282227 547.61352539 C-25.0487404 555.32079696 -21.12931773 563.10570959 -17.24829102 570.92211914 C-14.29074461 576.86220529 -11.2556712 582.75346375 -8.14282227 588.61352539 C-4.0487404 596.32079696 -0.12931773 604.10570959 3.75170898 611.92211914 C6.70926318 617.86222095 9.74482255 623.75319133 12.85717773 629.61352539 C16.62480679 636.71952147 20.30385772 643.86652773 23.91967773 651.05102539 C24.39727539 651.99333008 24.87487305 652.93563477 25.36694336 653.90649414 C25.80844727 654.78821289 26.24995117 655.66993164 26.70483398 656.57836914 C27.09678955 657.35817139 27.48874512 658.13797363 27.89257812 658.94140625 C28.85717773 661.11352539 28.85717773 661.11352539 29.85717773 665.11352539 C18.96717773 665.11352539 8.07717773 665.11352539 -3.14282227 665.11352539 C-8.42298049 655.1654012 -13.63467953 645.20117735 -18.64282227 635.11352539 C-22.03823649 628.27512545 -25.49693543 621.48034614 -29.08032227 614.73852539 C-33.42202387 606.56835848 -37.56285988 598.30624283 -41.67944336 590.02075195 C-45.16387328 583.025063 -48.75615871 576.09640683 -52.42407227 569.19555664 C-56.08115441 562.29033124 -59.56278323 555.30273056 -63.03759766 548.30444336 C-65.99506111 542.3645194 -69.03005881 536.47342612 -72.14282227 530.61352539 C-76.23690413 522.90625382 -80.1563268 515.12134119 -84.03735352 507.30493164 C-86.99489992 501.36484549 -90.02997333 495.47358703 -93.14282227 489.61352539 C-97.23690413 481.90625382 -101.1563268 474.12134119 -105.03735352 466.30493164 C-107.99489992 460.36484549 -111.02997333 454.47358703 -114.14282227 448.61352539 C-118.23690413 440.90625382 -122.1563268 433.12134119 -126.03735352 425.30493164 C-128.99489992 419.36484549 -132.02997333 413.47358703 -135.14282227 407.61352539 C-138.74635097 400.8297396 -142.22672047 393.99356516 -145.64282227 387.11352539 C-149.03831296 380.27506291 -152.49947241 373.48174024 -156.08032227 366.73852539 C-157.30941513 364.40625896 -158.53610214 362.07274863 -159.76147461 359.73852539 C-160.76297512 357.8353558 -161.76911341 355.93462441 -162.77807617 354.03540039 C-164.5012362 350.77897364 -166.19891523 347.51024767 -167.89282227 344.23852539 C-168.44317139 343.20937012 -168.99352051 342.18021484 -169.56054688 341.11987305 C-170.0569165 340.15098145 -170.55328613 339.18208984 -171.06469727 338.18383789 C-171.51425781 337.3254834 -171.96381836 336.46712891 -172.42700195 335.58276367 C-173.39142517 332.25596409 -172.71798538 331.18658362 -171.14282227 328.11352539 C-170.50789664 326.80094001 -169.87314932 325.48826838 -169.23852539 324.17553711 C-168.4692223 322.63034112 -167.69759447 321.08630112 -166.92407227 319.54321289 C-166.506698 318.70750763 -166.08932373 317.87180237 -165.65930176 317.01077271 C-164.77263111 315.23675151 -163.88495189 313.4632341 -162.99633789 311.69018555 C-161.67242164 309.04760669 -160.35268262 306.40297475 -159.03344727 303.75805664 C-154.31347244 294.31479085 -149.49990169 284.92903029 -144.56103516 275.59835815 C-141.50032438 269.81224868 -138.53495935 263.98586143 -135.64282227 258.11352539 C-131.83989158 250.44824323 -127.92636632 242.85365754 -123.91235352 235.29711914 C-120.72875539 229.28142427 -117.66958817 223.20944888 -114.64282227 217.11352539 C-110.83742848 209.44944099 -106.92639905 201.85371916 -102.91235352 194.29711914 C-99.72875537 188.28142422 -96.66959111 182.20944738 -93.64282227 176.11352539 C-90.24737198 169.2751443 -86.78870933 162.48034656 -83.20532227 155.73852539 C-79.40394939 148.58514321 -75.74719361 141.36808152 -72.14282227 134.11352539 C-68.15275325 126.08267152 -64.07022952 118.11376757 -59.86157227 110.19555664 C-56.20449012 103.29033124 -52.7228613 96.30273056 -49.24804688 89.30444336 C-45.90062852 82.58131362 -42.43544553 75.92947967 -38.91235352 69.29711914 C-35.24055817 62.35893172 -31.74128774 55.33989299 -28.25048828 48.30932617 C-24.88555148 41.55098139 -21.40507827 34.86228994 -17.86181641 28.19604492 C-14.21206618 21.30588957 -10.72488373 14.33872633 -7.27734375 7.34545898 C-6.68288452 6.14397217 -6.68288452 6.14397217 -6.07641602 4.91821289 C-5.72635498 4.20648926 -5.37629395 3.49476562 -5.015625 2.76147461 C-3.51559108 -0.07075726 -3.50628218 0.12665433 0 0 Z " fill="#49264E" transform="translate(411.142822265625,10.886474609375)"/>
<path d="M0 0 C1.38086832 0.00078959 2.76189782 0.02892951 4.1418457 0.0793457 C4.87007034 0.08642044 5.59829498 0.09349518 6.34858704 0.1007843 C8.67264932 0.12875614 10.99429426 0.19149045 13.31762695 0.25512695 C14.89376401 0.28020664 16.46993886 0.3030204 18.04614258 0.32348633 C21.90840093 0.37859069 25.76885427 0.46487467 29.63012695 0.56762695 C28.49059955 4.13311133 27.28093247 7.51652786 25.59887695 10.8605957 C25.20595459 11.64515137 24.81303223 12.42970703 24.40820312 13.23803711 C23.98643799 14.06867676 23.56467285 14.89931641 23.13012695 15.75512695 C22.68580322 16.6373291 22.24147949 17.51953125 21.78369141 18.4284668 C18.46389693 24.99309832 15.04383336 31.50162475 11.59301758 37.99804688 C7.99605107 44.80073334 4.55540703 51.67717999 1.13012695 58.56762695 C-2.60029751 66.07171465 -6.36777138 73.54609006 -10.30737305 80.94262695 C-14.46493661 88.7500648 -18.43202349 96.64778566 -22.36987305 104.56762695 C-26.68072591 113.23765611 -31.06007654 121.8611961 -35.61206055 130.4074707 C-39.14535481 137.07124066 -42.51243125 143.81385031 -45.86987305 150.56762695 C-49.60030738 158.07170946 -53.36777132 165.54608994 -57.30737305 172.94262695 C-61.46493661 180.7500648 -65.43202349 188.64778566 -69.36987305 196.56762695 C-73.68072591 205.23765611 -78.06007654 213.8611961 -82.61206055 222.4074707 C-86.14535481 229.07124066 -89.51243125 235.81385031 -92.86987305 242.56762695 C-96.60030738 250.07170946 -100.36777132 257.54608994 -104.30737305 264.94262695 C-108.78404991 273.34932377 -113.03669795 281.8635808 -117.27655029 290.39123535 C-121.07968646 298.03664891 -124.93577435 305.64647296 -128.93237305 313.19262695 C-129.33431885 313.95462402 -129.73626465 314.71662109 -130.15039062 315.50170898 C-131.78900532 318.60348441 -133.43993663 321.69529837 -135.12768555 324.77075195 C-135.83538086 326.09333008 -135.83538086 326.09333008 -136.55737305 327.44262695 C-136.94280273 328.14129883 -137.32823242 328.8399707 -137.7253418 329.55981445 C-139.10631031 333.8617406 -136.93396246 337.80925951 -134.9987793 341.63793945 C-134.26896851 343.09079346 -134.26896851 343.09079346 -133.52441406 344.57299805 C-132.73635376 346.11721436 -132.73635376 346.11721436 -131.93237305 347.69262695 C-131.38959717 348.76722168 -130.84682129 349.84181641 -130.28759766 350.94897461 C-126.67692929 358.07305428 -122.98134487 365.14937845 -119.23144531 372.20092773 C-115.66547086 378.93453844 -112.26155788 385.7448649 -108.86987305 392.56762695 C-105.13944365 400.07171205 -101.37197474 407.54609 -97.43237305 414.94262695 C-92.95287136 423.35462848 -88.69783375 431.87440005 -84.45513916 440.40734863 C-80.4475045 448.46343272 -76.35762571 456.46582808 -72.12768555 464.4074707 C-68.0030644 472.18647932 -64.10308531 480.0753326 -60.18383789 487.95922852 C-57.00975605 494.32977772 -53.77827925 500.66074345 -50.43237305 506.94262695 C-45.95287136 515.35462848 -41.69783375 523.87440005 -37.45513916 532.40734863 C-33.4475045 540.46343272 -29.35762571 548.46582808 -25.12768555 556.4074707 C-21.0030644 564.18647932 -17.10308531 572.0753326 -13.18383789 579.95922852 C-10.00975605 586.32977772 -6.77827925 592.66074345 -3.43237305 598.94262695 C1.04395071 607.34866067 5.29630025 615.86222829 9.53579712 624.38922119 C14.08351403 633.53152121 18.74268438 642.60322659 23.54418945 651.61450195 C25.01322407 654.38766552 26.47206144 657.16550374 27.90356445 659.95825195 C28.23533691 660.60310547 28.56710937 661.24795898 28.90893555 661.91235352 C29.63012695 663.56762695 29.63012695 663.56762695 29.63012695 665.56762695 C18.74012695 665.56762695 7.85012695 665.56762695 -3.36987305 665.56762695 C-14.81640165 643.94640627 -26.11437288 622.23749597 -36.98413086 600.31982422 C-39.61742893 595.02577454 -42.34481242 589.78858854 -45.11987305 584.56762695 C-49.33661225 576.63351034 -53.36990716 568.6125458 -57.36987305 560.56762695 C-61.68070865 551.89758894 -66.0600767 543.27405751 -70.61206055 534.7277832 C-74.7366817 526.94877459 -78.63666078 519.05992131 -82.5559082 511.17602539 C-85.72999004 504.80547619 -88.96146684 498.47451046 -92.30737305 492.19262695 C-96.78687474 483.78062543 -101.04191234 475.26085385 -105.28460693 466.72790527 C-109.29224159 458.67182119 -113.38212038 450.66942583 -117.61206055 442.7277832 C-121.7366817 434.94877459 -125.63666078 427.05992131 -129.5559082 419.17602539 C-132.72999004 412.80547619 -135.96146684 406.47451046 -139.30737305 400.19262695 C-143.78417027 391.78570412 -148.03844982 383.27184988 -152.27655029 374.74301147 C-156.43040455 366.38706774 -160.65440185 358.07852536 -165.08666992 349.86645508 C-165.81699355 348.50309782 -166.52766057 347.12901894 -167.21777344 345.74487305 C-168.36815945 343.47738233 -168.36815945 343.47738233 -170.00439453 341.14428711 C-171.7813937 338.18837264 -172.79709586 335.98050229 -173.36987305 332.56762695 C-171.8779702 326.92541638 -169.15997934 322.12576343 -166.30737305 317.06762695 C-165.5380651 315.63206178 -164.77270511 314.19437422 -164.01123047 312.75463867 C-162.15971148 309.2726555 -160.26639259 305.81580986 -158.35778809 302.36486816 C-156.63085936 299.22319367 -154.97506549 296.04500011 -153.31738281 292.86645508 C-152.1757257 290.67989562 -151.01713953 288.50285368 -149.8581543 286.32543945 C-146.1724559 279.34026402 -142.69887603 272.2468142 -139.18334961 265.17504883 C-136.00943282 258.80482431 -132.77810801 252.47418896 -129.43237305 246.19262695 C-125.27480948 238.3851891 -121.30772261 230.48746824 -117.36987305 222.56762695 C-113.05902018 213.89759779 -108.67966955 205.27405781 -104.12768555 196.7277832 C-100.59439129 190.06401324 -97.22731485 183.3214036 -93.86987305 176.56762695 C-90.13943871 169.06354445 -86.37197477 161.58916397 -82.43237305 154.19262695 C-78.27480948 146.3851891 -74.30772261 138.48746824 -70.36987305 130.56762695 C-66.05902018 121.89759779 -61.67966955 113.27405781 -57.12768555 104.7277832 C-53.59439129 98.06401324 -50.22731485 91.3214036 -46.86987305 84.56762695 C-43.13943871 77.06354445 -39.37197477 69.58916397 -35.43237305 62.19262695 C-31.27480264 54.38517626 -27.30814607 46.4872668 -23.36987305 38.56762695 C-19.21502528 30.21546351 -15.0291316 21.88437887 -10.68237305 13.63012695 C-10.08585937 12.49607422 -10.08585937 12.49607422 -9.47729492 11.33911133 C-8.45349271 9.40764502 -7.43065744 7.47903797 -6.36987305 5.56762695 C-5.79825439 4.23199707 -5.79825439 4.23199707 -5.21508789 2.86938477 C-3.36987305 0.56762695 -3.36987305 0.56762695 0 0 Z " fill="#49264E" transform="translate(605.369873046875,10.432373046875)"/>
<path d="M0 0 C11.22 0 22.44 0 34 0 C32.37191406 3.25423828 32.37191406 3.25423828 30.7109375 6.57421875 C27.78890727 12.41635692 24.87216872 18.26111207 21.95904541 24.10769653 C20.01365922 28.01130436 18.06647175 31.91401251 16.11914062 35.81665039 C15.12590524 37.80815226 14.13338791 39.80001243 13.14160156 41.79223633 C7.68303418 52.75537026 2.16348527 63.67573952 -3.57125854 74.49726868 C-6.98687625 80.9477267 -10.26754865 87.45555502 -13.5 94 C-17.2284753 101.50502471 -20.99792645 108.97851588 -24.9375 116.375 C-29.09506357 124.18243785 -33.06215044 132.08015871 -37 140 C-41.31085286 148.67002916 -45.6902035 157.29356915 -50.2421875 165.83984375 C-53.77548176 172.50361371 -57.1425582 179.24622336 -60.5 186 C-64.23043434 193.50408251 -67.99789827 200.97846298 -71.9375 208.375 C-76.09506357 216.18243785 -80.06215044 224.08015871 -84 232 C-88.31085286 240.67002916 -92.6902035 249.29356915 -97.2421875 257.83984375 C-101.3645071 265.61451166 -105.26245352 273.49888527 -109.17944336 281.37841797 C-112.03307032 287.10585968 -114.91376021 292.81308055 -117.91479492 298.46484375 C-118.71618025 299.97805067 -119.5081715 301.49627325 -120.2902832 303.01953125 C-122.48321505 307.27138497 -124.82388307 311.34451355 -127.37890625 315.390625 C-128.4821319 317.26020365 -129.58500295 319.1299916 -130.6875 321 C-131.52982178 322.22541504 -131.52982178 322.22541504 -132.38916016 323.47558594 C-134.41582948 327.04070346 -135.56476801 329.88344468 -134.46981812 333.98693848 C-132.55910265 339.00703062 -130.00336848 343.69339361 -127.41989136 348.39331055 C-125.55058624 351.82505053 -123.80751694 355.31429397 -122.05825806 358.80831909 C-119.71700007 363.47206075 -117.32215484 368.10834529 -114.9375 372.75 C-113.88519357 374.80371772 -112.83319872 376.85759511 -111.78149414 378.91162109 C-109.60421532 383.1633705 -107.42562169 387.41444219 -105.24609375 391.66503906 C-100.62876699 400.67261659 -96.02866636 409.68898142 -91.42776489 418.70495605 C-88.9305604 423.59801024 -86.43211971 428.49043299 -83.93359375 433.3828125 C-83.19434914 434.83034912 -83.19434914 434.83034912 -82.44017029 436.30712891 C-76.65372197 447.63702166 -70.86311834 458.96479024 -65.07247925 470.2925415 C-57.20724112 485.67882221 -49.34741079 501.06785822 -41.48974609 516.45800781 C-33.68987619 531.73475074 -25.88567459 547.00927357 -18.07778931 562.28192139 C-12.66691954 572.86588683 -7.25842156 583.45105304 -1.85546875 594.0390625 C-0.30967153 597.06802363 1.23614794 600.09697341 2.78198242 603.12591553 C3.79574263 605.11240203 4.80941566 607.09893302 5.82299805 609.08551025 C11.03520343 619.3003691 16.25589017 629.51063051 21.51171875 639.703125 C21.94051834 640.53500336 22.36931793 641.36688171 22.81111145 642.22396851 C24.81162712 646.10413853 26.81453648 649.98304158 28.8215332 653.85986328 C29.51649369 655.20602635 30.21140267 656.55221602 30.90625 657.8984375 C31.50759766 659.06036621 32.10894531 660.22229492 32.72851562 661.41943359 C34 664 34 664 34 665 C22.78 665 11.56 665 0 665 C-2.19849609 660.69388672 -2.19849609 660.69388672 -4.44140625 656.30078125 C-14.79020852 636.03177675 -25.14124862 615.7639219 -35.5 595.5 C-43.31596611 580.21010227 -51.12856674 564.91849082 -58.9375 549.625 C-59.43394012 548.65274475 -59.93038025 547.6804895 -60.44186401 546.67877197 C-64.46485411 538.799842 -68.48761963 530.92079737 -72.51037598 523.04174805 C-76.02764562 516.1527784 -79.54500431 509.26385423 -83.0625 502.375 C-83.55902069 501.40258362 -84.05554138 500.43016724 -84.56710815 499.42828369 C-91.87464006 485.11710067 -99.18605041 470.80790411 -106.5 456.5 C-116.79887107 436.35284722 -127.09030868 416.20190525 -137.37916565 396.04963684 C-140.59981912 389.74171283 -143.82123103 383.43417666 -147.0431366 377.12689209 C-149.26464868 372.77799623 -151.4859801 368.4290081 -153.70730591 364.08001709 C-154.76831331 362.00286399 -155.82940796 359.92575545 -156.89059448 357.84869385 C-158.36088747 354.97086161 -159.83086729 352.0928696 -161.30078125 349.21484375 C-161.95063492 347.94318108 -161.95063492 347.94318108 -162.61361694 346.64582825 C-163.40019147 345.10547194 -164.18300259 343.56318493 -164.96109009 342.01852417 C-165.87991275 340.23332053 -166.86353745 338.48179599 -167.85620117 336.73657227 C-169.23365574 333.44097179 -169.17735527 332.34320037 -168 329 C-166.82549879 326.39051273 -165.61241316 323.85200261 -164.31640625 321.3046875 C-163.94540802 320.56420166 -163.57440979 319.82371582 -163.19216919 319.06079102 C-161.9883194 316.66243357 -160.77566894 314.2686551 -159.5625 311.875 C-158.72924185 310.22038185 -157.89631631 308.56559617 -157.0637207 306.91064453 C-152.64694962 298.14732078 -148.17889738 289.41449058 -143.55688477 280.75732422 C-139.4906414 273.11644761 -135.66572081 265.35651508 -131.81298828 257.60644531 C-128.63923655 251.23654548 -125.40806372 244.9062405 -122.0625 238.625 C-117.90493637 230.81756202 -113.93785484 222.91983866 -110 215 C-105.71242224 206.37683481 -101.3570403 197.80004563 -96.828125 189.30078125 C-93.09651053 182.26159941 -89.54685012 175.13340378 -86 168 C-81.71241654 159.37683774 -77.35704035 150.80004573 -72.828125 142.30078125 C-68.77567301 134.65638317 -64.93673914 126.90638842 -61.08499146 119.159729 C-57.07744857 111.10382803 -52.98765637 103.10161808 -48.7578125 95.16015625 C-45.22451824 88.49638629 -41.8574418 81.75377664 -38.5 75 C-34.39667158 66.74580966 -30.2166018 58.54661389 -25.88330078 50.41113281 C-21.49143061 42.1214558 -17.33094325 33.71540669 -13.17211914 25.30712891 C-8.93680852 16.77249483 -4.48935878 8.41754772 0 0 Z " fill="#49264E" transform="translate(537,11)"/>
<path d="M0 0 C9.9 0 19.8 0 30 0 C30 219.45 30 438.9 30 665 C20.1 665 10.2 665 0 665 C0 445.55 0 226.1 0 0 Z " fill="#49274E" transform="translate(192,11)"/>
<path d="M0 0 C9.9 0 19.8 0 30 0 C30 219.45 30 438.9 30 665 C20.1 665 10.2 665 0 665 C0 445.55 0 226.1 0 0 Z " fill="#49274E" transform="translate(135,11)"/>
<path d="M0 0 C9.9 0 19.8 0 30 0 C30 219.45 30 438.9 30 665 C20.1 665 10.2 665 0 665 C0 445.55 0 226.1 0 0 Z " fill="#49264E" transform="translate(77,11)"/>
<path d="M0 0 C9.9 0 19.8 0 30 0 C30 219.45 30 438.9 30 665 C20.1 665 10.2 665 0 665 C0 445.55 0 226.1 0 0 Z " fill="#49264E" transform="translate(19,11)"/>
<path d="M0 0 C9.9 0 19.8 0 30 0 C30 191.07 30 382.14 30 579 C20.1 579 10.2 579 0 579 C0 387.93 0 196.86 0 0 Z " fill="#4A264E" transform="translate(1947,97)"/>
<path d="M0 0 C9.9 0 19.8 0 30 0 C30 191.07 30 382.14 30 579 C20.1 579 10.2 579 0 579 C0 387.93 0 196.86 0 0 Z " fill="#49274E" transform="translate(1832,97)"/>
<path d="M0 0 C9.9 0 19.8 0 30 0 C30 191.07 30 382.14 30 579 C20.1 579 10.2 579 0 579 C0 387.93 0 196.86 0 0 Z " fill="#4A264F" transform="translate(1485,97)"/>
<path d="M0 0 C9.9 0 19.8 0 30 0 C30 191.07 30 382.14 30 579 C20.1 579 10.2 579 0 579 C0 387.93 0 196.86 0 0 Z " fill="#49264E" transform="translate(1427,97)"/>
<path d="M0 0 C9.9 0 19.8 0 30 0 C30 191.07 30 382.14 30 579 C20.1 579 10.2 579 0 579 C0 387.93 0 196.86 0 0 Z " fill="#4A264E" transform="translate(1369,97)"/>
<path d="M0 0 C9.57 0 19.14 0 29 0 C29 191.07 29 382.14 29 579 C19.43 579 9.86 579 0 579 C0 387.93 0 196.86 0 0 Z " fill="#49264E" transform="translate(1890,97)"/>
<path d="M0 0 C9.9 0 19.8 0 30 0 C30 97.02 30 194.04 30 294 C20.1 294 10.2 294 0 294 C0 196.98 0 99.96 0 0 Z " fill="#49264E" transform="translate(1269,382)"/>
<path d="M0 0 C9.9 0 19.8 0 30 0 C30 97.02 30 194.04 30 294 C20.1 294 10.2 294 0 294 C0 196.98 0 99.96 0 0 Z " fill="#4A264F" transform="translate(1154,382)"/>
<path d="M0 0 C9.57 0 19.14 0 29 0 C29 97.02 29 194.04 29 294 C19.43 294 9.86 294 0 294 C0 196.98 0 99.96 0 0 Z " fill="#49264F" transform="translate(1212,382)"/>
<path d="M0 0 C0.94875 0.763125 1.8975 1.52625 2.875 2.3125 C3.535 0.0025 4.195 -2.3075 4.875 -4.6875 C8.505 -4.6875 12.135 -4.6875 15.875 -4.6875 C11.68238935 35.16696362 11.68238935 35.16696362 0.375 44.4375 C-5.83782035 48.96205395 -11.68016909 49.6167094 -19.125 49.5 C-19.90617187 49.49935547 -20.68734375 49.49871094 -21.4921875 49.49804688 C-25.80700826 49.46535884 -29.87754543 49.16335228 -34.125 48.3125 C-34.785 49.6325 -35.445 50.9525 -36.125 52.3125 C-34.42853259 55.60795405 -34.42853259 55.60795405 -31.1328125 55.97265625 C-29.85148437 56.10542969 -28.57015625 56.23820312 -27.25 56.375 C-26.20489258 56.49113647 -26.20489258 56.49113647 -25.13867188 56.60961914 C-21.06346434 57.05282927 -16.98192121 57.41592526 -12.8984375 57.7734375 C-12.02171387 57.85327881 -11.14499023 57.93312012 -10.24169922 58.01538086 C-8.53857038 58.16808722 -6.83443697 58.31009269 -5.12939453 58.43969727 C1.38502643 59.01434388 7.63071305 59.95312141 12.3125 64.875 C14.99540814 69.0603367 15.37166505 72.39183696 14.875 77.3125 C12.65116497 83.61336591 8.57350314 87.00719269 2.63671875 89.87890625 C-9.89492033 95.05401516 -28.17592017 94.74124796 -40.93359375 90.40234375 C-45.358352 88.20179553 -49.88246419 84.79757161 -52.125 80.3125 C-52.22108608 78.48121229 -52.25482579 76.64630041 -52.25 74.8125 C-52.25257813 73.8328125 -52.25515625 72.853125 -52.2578125 71.84375 C-52.125 69.3125 -52.125 69.3125 -51.125 67.3125 C-49.26875 67.2815625 -49.26875 67.2815625 -47.375 67.25 C-46.67890625 67.23839844 -45.9828125 67.22679687 -45.265625 67.21484375 C-43.125 67.3125 -43.125 67.3125 -39.125 68.3125 C-39.125 71.9425 -39.125 75.5725 -39.125 79.3125 C-27.00664651 82.36479893 -14.2860031 84.42644529 -2.125 80.3125 C0.92008754 78.38435753 0.92008754 78.38435753 2.875 76.3125 C2.545 74.6625 2.215 73.0125 1.875 71.3125 C-3.28423161 69.74317759 -8.3305237 69.01532747 -13.6953125 68.56640625 C-14.38389343 68.50858978 -15.07247437 68.45077332 -15.78192139 68.39120483 C-18.66722888 68.15475509 -21.55307437 67.92728885 -24.43994141 67.71069336 C-26.56775472 67.54839441 -28.69388052 67.37078602 -30.8203125 67.19140625 C-32.07859863 67.0941626 -33.33688477 66.99691895 -34.63330078 66.89672852 C-39.42968058 66.09420182 -42.84114274 64.42742867 -46.5 61.25 C-48.88243585 56.94328904 -49.02898925 53.1238147 -48.125 48.3125 C-46.71669931 45.56412079 -45.1736703 43.66847085 -43.125 41.3125 C-43.90875 40.301875 -44.6925 39.29125 -45.5 38.25 C-50.06794055 31.77982925 -50.86086 25.05089875 -50.125 17.3125 C-48.83853391 10.24863165 -45.57559624 4.97138953 -40.125 0.3125 C-27.85428228 -7.4021634 -12.22308736 -8.63961195 0 0 Z M-33.9375 10.75 C-37.87924155 15.36746867 -38.58342927 18.79273679 -38.43359375 24.77734375 C-37.92659056 28.94247123 -36.72755713 30.97588829 -34.125 34.3125 C-28.60137676 38.59612618 -23.06754082 39.55626899 -16.125 39.3125 C-10.08447061 38.25913608 -6.03258106 36.16737344 -2.125 31.3125 C0.7406404 26.58368704 0.49820829 21.67988143 -0.125 16.3125 C-2.45084686 11.39243933 -5.44643608 9.00018565 -10.125 6.3125 C-18.724141 3.44611967 -27.13228088 4.85214343 -33.9375 10.75 Z " fill="#49264E" transform="translate(403.125,990.6875)"/>
<path d="M0 0 C1.6519971 1.16767666 3.2439571 2.41956196 4.8203125 3.6875 C5.4803125 1.3775 6.1403125 -0.9325 6.8203125 -3.3125 C10.4503125 -3.3125 14.0803125 -3.3125 17.8203125 -3.3125 C13.62770185 36.54196362 13.62770185 36.54196362 2.3203125 45.8125 C-3.89250785 50.33705395 -9.73485659 50.9917094 -17.1796875 50.875 C-17.96085938 50.87435547 -18.74203125 50.87371094 -19.546875 50.87304688 C-23.86169576 50.84035884 -27.93223293 50.53835228 -32.1796875 49.6875 C-32.8396875 51.0075 -33.4996875 52.3275 -34.1796875 53.6875 C-32.48322009 56.98295405 -32.48322009 56.98295405 -29.1875 57.34765625 C-27.90617188 57.48042969 -26.62484375 57.61320312 -25.3046875 57.75 C-24.25958008 57.86613647 -24.25958008 57.86613647 -23.19335938 57.98461914 C-19.11815184 58.42782927 -15.03660871 58.79092526 -10.953125 59.1484375 C-10.07640137 59.22827881 -9.19967773 59.30812012 -8.29638672 59.39038086 C-6.59325788 59.54308722 -4.88912447 59.68509269 -3.18408203 59.81469727 C3.33033893 60.38934388 9.57602555 61.32812141 14.2578125 66.25 C16.94072064 70.4353367 17.31697755 73.76683696 16.8203125 78.6875 C14.59647747 84.98836591 10.51881564 88.38219269 4.58203125 91.25390625 C-7.94960783 96.42901516 -26.23060767 96.11624796 -38.98828125 91.77734375 C-43.4130395 89.57679553 -47.93715169 86.17257161 -50.1796875 81.6875 C-50.27577358 79.85621229 -50.30951329 78.02130041 -50.3046875 76.1875 C-50.30726563 75.2078125 -50.30984375 74.228125 -50.3125 73.21875 C-50.1796875 70.6875 -50.1796875 70.6875 -49.1796875 68.6875 C-47.3234375 68.6565625 -47.3234375 68.6565625 -45.4296875 68.625 C-44.73359375 68.61339844 -44.0375 68.60179687 -43.3203125 68.58984375 C-41.1796875 68.6875 -41.1796875 68.6875 -37.1796875 69.6875 C-37.1796875 73.3175 -37.1796875 76.9475 -37.1796875 80.6875 C-25.06133401 83.73979893 -12.3406906 85.80144529 -0.1796875 81.6875 C2.86540004 79.75935753 2.86540004 79.75935753 4.8203125 77.6875 C4.4903125 76.0375 4.1603125 74.3875 3.8203125 72.6875 C-1.33891911 71.11817759 -6.3852112 70.39032747 -11.75 69.94140625 C-12.43858093 69.88358978 -13.12716187 69.82577332 -13.83660889 69.76620483 C-16.72191638 69.52975509 -19.60776187 69.30228885 -22.49462891 69.08569336 C-24.62244222 68.92339441 -26.74856802 68.74578602 -28.875 68.56640625 C-30.13328613 68.4691626 -31.39157227 68.37191895 -32.68798828 68.27172852 C-37.48436808 67.46920182 -40.89583024 65.80242867 -44.5546875 62.625 C-46.93712335 58.31828904 -47.08367675 54.4988147 -46.1796875 49.6875 C-44.77138681 46.93912079 -43.2283578 45.04347085 -41.1796875 42.6875 C-41.9634375 41.676875 -42.7471875 40.66625 -43.5546875 39.625 C-48.1007706 33.18578882 -48.96691344 26.40231423 -48.1796875 18.6875 C-46.26537063 10.79268954 -42.07352117 4.68239488 -35.44140625 0.01171875 C-24.79327571 -6.22267893 -10.63360487 -6.40303089 0 0 Z M-31.9921875 12.125 C-35.93392905 16.74246867 -36.63811677 20.16773679 -36.48828125 26.15234375 C-35.98127806 30.31747123 -34.78224463 32.35088829 -32.1796875 35.6875 C-26.65606426 39.97112618 -21.12222832 40.93126899 -14.1796875 40.6875 C-8.13915811 39.63413608 -4.08726856 37.54237344 -0.1796875 32.6875 C2.6859529 27.95868704 2.44352079 23.05488143 1.8203125 17.6875 C-0.50553436 12.76743933 -3.50112358 10.37518565 -8.1796875 7.6875 C-16.7788285 4.82111967 -25.18696838 6.22714343 -31.9921875 12.125 Z " fill="#49264E" transform="translate(935.1796875,989.3125)"/>
<path d="M0 0 C6.38768087 5.60451694 9.27231543 12.64239547 11.0390625 20.7890625 C11.0390625 24.7490625 11.0390625 28.7090625 11.0390625 32.7890625 C-7.7709375 32.7890625 -26.5809375 32.7890625 -45.9609375 32.7890625 C-41.63137143 44.30497218 -41.63137143 44.30497218 -33.0234375 50.5390625 C-26.48056408 53.11049747 -18.58039124 52.88331596 -11.9375 50.875 C-7.64715693 48.92484406 -5.41348932 47.49451092 -2.8359375 43.4765625 C-2.5471875 42.5896875 -2.2584375 41.7028125 -1.9609375 40.7890625 C1.9990625 40.7890625 5.9590625 40.7890625 10.0390625 40.7890625 C9.77025131 47.24053101 7.61500597 51.23160769 3.0390625 55.7890625 C-7.29604474 63.60509519 -17.2884119 64.62136821 -29.9609375 63.7890625 C-38.57966132 62.50093802 -45.13292536 58.29408116 -50.75 51.68359375 C-57.83074814 41.82984325 -59.43744182 30.98063445 -57.52734375 19.08984375 C-55.24462401 10.05821349 -50.28771653 2.99908949 -42.5859375 -2.2109375 C-29.06033651 -10.04251845 -12.71416001 -9.12005117 0 0 Z M-41.9609375 12.7890625 C-44.87785554 17.50534944 -44.87785554 17.50534944 -45.9609375 22.7890625 C-31.4409375 22.7890625 -16.9209375 22.7890625 -1.9609375 22.7890625 C-2.99936882 15.52004327 -4.13429007 12.46693902 -9.3359375 7.5390625 C-20.02179531 0.41515729 -34.00125731 2.7826074 -41.9609375 12.7890625 Z " fill="#49264E" transform="translate(1143.9609375,992.2109375)"/>
<path d="M0 0 C8.60733263 7.16324526 12.19166094 15.26703641 13.3515625 26.26953125 C13.51210098 28.669159 13.50860229 30.86158778 13.3515625 33.26953125 C12.3515625 34.26953125 12.3515625 34.26953125 10.10533142 34.38978577 C9.11271805 34.38756516 8.12010468 34.38534454 7.09741211 34.38305664 C5.97632553 34.38298111 4.85523895 34.38290558 3.70018005 34.38282776 C1.87052452 34.37508583 1.87052452 34.37508583 0.00390625 34.3671875 C-1.23765732 34.36577255 -2.47922089 34.3643576 -3.75840759 34.36289978 C-7.06449241 34.35823716 -10.37050896 34.34924622 -13.67657471 34.3381958 C-17.048049 34.32797952 -20.41953033 34.3234017 -23.79101562 34.31835938 C-30.41017525 34.3073052 -37.02930243 34.29054861 -43.6484375 34.26953125 C-43.21257931 35.6913268 -42.76654742 37.11000544 -42.31640625 38.52734375 C-42.06914795 39.3177002 -41.82188965 40.10805664 -41.56713867 40.92236328 C-39.56253616 46.04387499 -36.11420419 49.92627737 -31.0859375 52.20703125 C-23.02986178 54.67632649 -14.03851842 54.39721578 -6.48046875 50.625 C-4.42741441 49.10600244 -3.57142727 47.73442746 -2.3359375 45.51953125 C-1.2421875 43.6875 -1.2421875 43.6875 0.3515625 42.26953125 C4.41145958 41.65520472 8.27707619 41.8601331 12.3515625 42.26953125 C10.46709923 50.02275156 7.15124565 56.09174496 0.36328125 60.5859375 C-9.63176789 65.84546821 -20.78072996 66.73123751 -31.78125 64.6875 C-39.98780651 62.12733494 -46.76700053 56.85333443 -51.34765625 49.56640625 C-56.65034594 39.17374222 -57.77970071 26.45274947 -54.1484375 15.20703125 C-50.00264109 5.82140882 -43.6145285 0.67292936 -34.48046875 -3.63671875 C-23.34208754 -7.93843839 -9.99928661 -6.53345718 0 0 Z M-39.1484375 12.70703125 C-41.9535072 16.40750456 -43.6484375 19.55257618 -43.6484375 24.26953125 C-29.1284375 24.26953125 -14.6084375 24.26953125 0.3515625 24.26953125 C-1.53156294 15.79546679 -2.37123311 12.29487094 -9.2109375 7.45703125 C-19.01624974 2.68008426 -31.77062055 4.50547745 -39.1484375 12.70703125 Z " fill="#49264E" transform="translate(1873.6484375,990.73046875)"/>
<path d="M0 0 C3.96 0 7.92 0 12 0 C12.33 12.54 12.66 25.08 13 38 C16.96 35.525 16.96 35.525 21 33 C29.15531246 29.8284896 37.45806776 30.19120419 45.67578125 32.96484375 C51.92133023 35.74647481 55.4462094 39.94874904 58.2734375 46.0703125 C59.66353376 49.76228859 60.1236946 53.00649502 60.11352539 56.95214844 C60.11344986 57.93286316 60.11337433 58.91357788 60.11329651 59.92401123 C60.10813522 60.97518127 60.10297394 62.02635132 60.09765625 63.109375 C60.0962413 64.19132141 60.09482635 65.27326782 60.09336853 66.38800049 C60.08777318 69.8420285 60.0752215 73.29599159 60.0625 76.75 C60.0574844 79.09244698 60.0529216 81.43489498 60.04882812 83.77734375 C60.03780527 89.51825417 60.02054379 95.25911608 60 101 C56.04 101 52.08 101 48 101 C47.98541748 99.64318115 47.97083496 98.2863623 47.95581055 96.88842773 C47.8976681 91.83575603 47.82043581 86.78352254 47.73754883 81.73120117 C47.70437448 79.5480055 47.6763194 77.36472561 47.65356445 75.18139648 C47.61988096 72.03593183 47.56755724 68.89123376 47.51171875 65.74609375 C47.50532883 64.7760289 47.4989389 63.80596405 47.49235535 62.8065033 C47.3541409 56.37954921 46.57146388 51.4118585 42.6015625 46.14453125 C38.65461636 43.32390877 33.28721334 42.82827631 28.5546875 43.18359375 C23.65436487 44.12213012 19.83869984 45.70968585 16 49 C12.44089096 54.397494 12.52921173 59.40165251 12.48828125 65.6484375 C12.47033005 66.66096588 12.45237885 67.67349426 12.43388367 68.71670532 C12.37990042 71.93609511 12.34592293 75.15533763 12.3125 78.375 C12.2793164 80.56382252 12.24482578 82.75262564 12.20898438 84.94140625 C12.12418057 90.2941644 12.05731189 95.64687976 12 101 C8.04 101 4.08 101 0 101 C0 67.67 0 34.34 0 0 Z " fill="#49264E" transform="translate(1420,954)"/>
<path d="M0 0 C3.96 0 7.92 0 12 0 C12.33 12.54 12.66 25.08 13 38 C16.96 35.525 16.96 35.525 21 33 C29.15531246 29.8284896 37.45806776 30.19120419 45.67578125 32.96484375 C51.92133023 35.74647481 55.4462094 39.94874904 58.2734375 46.0703125 C59.66353376 49.76228859 60.1236946 53.00649502 60.11352539 56.95214844 C60.11344986 57.93286316 60.11337433 58.91357788 60.11329651 59.92401123 C60.10813522 60.97518127 60.10297394 62.02635132 60.09765625 63.109375 C60.0962413 64.19132141 60.09482635 65.27326782 60.09336853 66.38800049 C60.08777318 69.8420285 60.0752215 73.29599159 60.0625 76.75 C60.0574844 79.09244698 60.0529216 81.43489498 60.04882812 83.77734375 C60.03780527 89.51825417 60.02054379 95.25911608 60 101 C56.04 101 52.08 101 48 101 C47.98541748 99.64318115 47.97083496 98.2863623 47.95581055 96.88842773 C47.8976681 91.83575603 47.82043581 86.78352254 47.73754883 81.73120117 C47.70437448 79.5480055 47.6763194 77.36472561 47.65356445 75.18139648 C47.61988096 72.03593183 47.56755724 68.89123376 47.51171875 65.74609375 C47.50532883 64.7760289 47.4989389 63.80596405 47.49235535 62.8065033 C47.3541409 56.37954921 46.57146388 51.4118585 42.6015625 46.14453125 C38.65461636 43.32390877 33.28721334 42.82827631 28.5546875 43.18359375 C23.65436487 44.12213012 19.83869984 45.70968585 16 49 C12.44089096 54.397494 12.52921173 59.40165251 12.48828125 65.6484375 C12.47033005 66.66096588 12.45237885 67.67349426 12.43388367 68.71670532 C12.37990042 71.93609511 12.34592293 75.15533763 12.3125 78.375 C12.2793164 80.56382252 12.24482578 82.75262564 12.20898438 84.94140625 C12.12418057 90.2941644 12.05731189 95.64687976 12 101 C8.04 101 4.08 101 0 101 C0 67.67 0 34.34 0 0 Z " fill="#49264E" transform="translate(734,954)"/>
<path d="M0 0 C7.23893417 5.38126066 11.56058957 11.87705983 13.359375 20.75390625 C14.4266599 30.28707243 14.15874836 39.23460336 9.359375 47.75390625 C8.76125 48.82640625 8.163125 49.89890625 7.546875 51.00390625 C1.8208263 58.20236747 -5.52409078 62.98452345 -14.640625 64.75390625 C-25.80495441 65.54055277 -35.30844296 64.22321373 -44.53515625 57.609375 C-52.06621566 50.97254157 -56.05168491 42.48109512 -56.91796875 32.5859375 C-57.26333122 20.80217002 -54.54790714 11.66113652 -46.640625 2.75390625 C-33.61646873 -8.91868663 -14.32858009 -9.23347941 0 0 Z M-39.078125 12.00390625 C-44.3079995 18.99682626 -45.68795296 26.110441 -44.640625 34.75390625 C-42.85352497 42.46428751 -39.18931419 47.36679611 -32.640625 51.75390625 C-26.4422375 54.8531 -18.8502766 54.73634705 -12.328125 52.56640625 C-6.33146718 49.98434433 -2.96218136 45.21074884 0.359375 39.75390625 C2.52817727 33.24749943 2.70945675 23.61950734 -0.140625 17.25390625 C-3.51343548 11.79543557 -8.23525442 7.74182631 -14.140625 5.31640625 C-23.4363269 3.82245416 -32.34094952 4.69833383 -39.078125 12.00390625 Z " fill="#49264E" transform="translate(1574.640625,991.24609375)"/>
<path d="M0 0 C3.63 0 7.26 0 11 0 C11.33 18.15 11.66 36.3 12 55 C20.30916033 48.26488258 20.30916033 48.26488258 28.3125 41.25 C29.8671306 39.824702 31.42988443 38.4082215 33 37 C33.91394531 36.09378906 34.82789063 35.18757812 35.76953125 34.25390625 C39.89315185 31.37684569 42.5029897 31.40117028 47.375 31.6875 C48.47908203 31.72133789 48.47908203 31.72133789 49.60546875 31.75585938 C51.40453842 31.81427073 53.20254753 31.90393663 55 32 C49.78369359 38.40223591 49.78369359 38.40223591 46.5625 41.125 C45.89347656 41.69605469 45.22445312 42.26710938 44.53515625 42.85546875 C43.69855469 43.56316406 42.86195313 44.27085937 42 45 C40.78963984 46.03691504 39.58006843 47.07475116 38.37109375 48.11328125 C34.91759439 51.07966463 31.4596699 54.04081605 28 57 C29.66807592 62.08176869 32.65481137 66.1522727 35.6640625 70.51171875 C36.21613373 71.32115433 36.76820496 72.1305899 37.33700562 72.96455383 C39.09514468 75.54199795 40.85933038 78.1152098 42.625 80.6875 C44.95578902 84.0836754 47.28049705 87.48389294 49.6015625 90.88671875 C50.14213287 91.67004074 50.68270325 92.45336273 51.23965454 93.26042175 C51.98074966 94.34713921 51.98074966 94.34713921 52.73681641 95.45581055 C53.17490631 96.09358932 53.61299622 96.7313681 54.06436157 97.38847351 C55 99 55 99 55 101 C50.45852154 101.78503889 46.51917798 102.01057476 42 101 C38.0336109 97.46167645 35.63212026 93.14195448 33.0625 88.5625 C32.35791175 87.38342953 31.64894996 86.20696112 30.93554688 85.03320312 C29.56077304 82.76030582 28.21460053 80.47728657 26.87939453 78.18017578 C24.4135393 74.00763353 21.75109279 69.98859502 19 66 C15.70596513 67.47689418 14.17821469 68.21406407 12 71 C10.9410443 76.08683812 11.01900054 81.14321448 11.0625 86.3125 C11.04938364 87.73505868 11.03314006 89.15759219 11.01367188 90.58007812 C10.97292277 94.05382969 10.97494808 97.52602857 11 101 C7.37 101 3.74 101 0 101 C0 67.67 0 34.34 0 0 Z " fill="#49264E" transform="translate(112,954)"/>
<path d="M0 0 C3.63 0 7.26 0 11 0 C11.33 18.15 11.66 36.3 12 55 C22.67597314 45.78577415 22.67597314 45.78577415 33 36.1875 C38.98699551 31.12472647 43.64812269 31.12185601 51.140625 31.6484375 C52.55601562 31.82246094 52.55601562 31.82246094 54 32 C52.49542094 35.76565039 50.36583433 37.54295677 47.1875 40 C40.47390301 45.33348089 34.24586241 51.13147109 28 57 C29.65406953 61.97445187 32.51221671 65.97063582 35.4453125 70.2578125 C36.53265572 71.86841962 37.61989214 73.47909885 38.70703125 75.08984375 C40.42107079 77.61727565 42.13735561 80.14314828 43.85595703 82.66748047 C45.51661074 85.11034332 47.16884848 87.55873152 48.8203125 90.0078125 C49.33900909 90.76409943 49.85770569 91.52038635 50.39212036 92.29959106 C50.86616302 93.00397308 51.34020569 93.7083551 51.82861328 94.43408203 C52.4591008 95.36077194 52.4591008 95.36077194 53.10232544 96.30618286 C54 98 54 98 54 101 C49.85444143 101.61264412 46.13231604 101.78461697 42 101 C39.23285757 98.77945361 37.78644952 95.99213008 36.09619141 92.90673828 C34.21896451 89.64145052 32.10439227 86.53066986 30.03100586 83.38769531 C22.46228607 71.91270685 22.46228607 71.91270685 19 66 C16.09505777 67.30221548 13.92713161 68.43892133 12 71 C11.491851 74.19477975 11.491851 74.19477975 11.48828125 77.85546875 C11.47033005 78.51710526 11.45237885 79.17874176 11.43388367 79.86042786 C11.37979102 81.96938747 11.34589069 84.07812099 11.3125 86.1875 C11.27932573 87.61917208 11.24483595 89.05081433 11.20898438 90.48242188 C11.12406743 93.9880639 11.05725079 97.49378473 11 101 C7.37 101 3.74 101 0 101 C0 67.67 0 34.34 0 0 Z " fill="#49264E" transform="translate(646,954)"/>
<path d="M0 0 C4.62006037 4.62006037 6 9.53576796 6 16 C2.04 16 -1.92 16 -6 16 C-6.4125 14.906875 -6.825 13.81375 -7.25 12.6875 C-8.63154893 9.47685812 -9.85336524 7.71634624 -13 6 C-20.88802345 3.57028345 -28.63970825 4.59245752 -36 8 C-37.36290958 9.16009906 -37.36290958 9.16009906 -37.4375 12.3125 C-37.4047726 16.1165054 -37.4047726 16.1165054 -34.6171875 18.07421875 C-30.32239472 20.69370627 -25.56054424 21.49987061 -20.6875 22.5 C-11.04893564 24.50371589 -2.12639101 26.87360899 5 34 C7.62023575 38.2876585 7.6438261 43.11833121 7 48 C5.4258548 53.26914472 2.76060121 57.04582355 -1.91015625 59.96875 C-12.16233287 65.027768 -24.58100464 65.75998819 -35.5625 62.75 C-41.77103355 60.54663983 -46.22383606 57.45445902 -50 52 C-51.28317892 48.15046324 -51.06643637 45.05261865 -51 41 C-47.04 41 -43.08 41 -39 41 C-38.7525 42.093125 -38.505 43.18625 -38.25 44.3125 C-36.96158675 48.11331909 -36.44946027 49.17381515 -33 51 C-24.196108 53.84772817 -14.35489747 52.45719895 -6 49 C-5.9071875 47.1128125 -5.9071875 47.1128125 -5.8125 45.1875 C-5.77769531 44.47980469 -5.74289062 43.77210937 -5.70703125 43.04296875 C-5.85294237 40.95617666 -5.85294237 40.95617666 -7.12109375 39.359375 C-9.69932163 37.49404589 -12.17661527 36.8799642 -15.25 36.0625 C-16.49523437 35.7221875 -17.74046875 35.381875 -19.0234375 35.03125 C-21.66795225 34.33580667 -24.31903858 33.67502241 -26.9765625 33.03125 C-43.62985941 28.94198416 -43.62985941 28.94198416 -48.5 21.8125 C-51.20776832 16.30068715 -50.80595628 10.37309349 -48.875 4.6875 C-44.46343894 -1.63573751 -38.63671052 -4.84082237 -31.25 -6.6875 C-19.72406226 -7.79576324 -9.39334258 -7.34853331 0 0 Z " fill="#49264E" transform="translate(501,992)"/>
<path d="M0 0 C3.73636499 4.12966656 5.53299736 7.42400084 5.5625 13 C5.4696875 14.794375 5.4696875 14.794375 5.375 16.625 C1.745 16.625 -1.885 16.625 -5.625 16.625 C-5.955 15.5525 -6.285 14.48 -6.625 13.375 C-8.32934373 9.48499325 -10.3855334 7.92933134 -14.25 6.28125 C-21.73367948 4.2133912 -28.750851 5.25041776 -35.625 8.625 C-38.19187367 12.4753105 -37.45788724 14.21069763 -36.625 18.625 C-29.3428386 21.23244057 -22.00863489 22.99057328 -14.44140625 24.5546875 C-7.03221007 26.20842879 -0.32326806 28.65690513 4.875 34.375 C7.40311408 39.8525805 8.17246519 44.97352922 6.375 50.8125 C3.89813689 56.46425128 -0.73313052 59.93202216 -6.25 62.4375 C-16.75108603 66.13232657 -29.37091172 66.12679486 -39.625 61.625 C-45.27935511 58.4836916 -48.71524775 55.21779391 -50.875 49.0625 C-51.625 45.625 -51.625 45.625 -51.625 41.625 C-47.665 41.625 -43.705 41.625 -39.625 41.625 C-39.398125 42.90375 -39.17125 44.1825 -38.9375 45.5 C-38.44986917 47.69489195 -38.44986917 47.69489195 -37.625 49.625 C-35.27153258 51.18349551 -35.27153258 51.18349551 -32.625 51.625 C-31.14 52.12 -31.14 52.12 -29.625 52.625 C-18.14999944 53.45359075 -18.14999944 53.45359075 -7.625 49.625 C-5.37873043 46.81765527 -5.37873043 46.81765527 -5.5 43.6875 C-6.90208546 39.8707118 -8.65396986 39.23911558 -12.22705078 37.56420898 C-16.41224855 35.92498522 -20.7340705 35.03846453 -25.125 34.125 C-33.20055876 32.44500571 -40.35082803 30.68563901 -46.5 24.9375 C-49.548049 20.18612949 -51.05721583 15.94047837 -50.31640625 10.2578125 C-48.71300737 4.34216693 -45.73611964 0.90243961 -40.625 -2.375 C-28.44329071 -8.57271174 -11.23073663 -8.61116034 0 0 Z " fill="#49264E" transform="translate(1774.625,991.375)"/>
<path d="M0 0 C3.63660909 2.89977979 6.30197559 5.95670802 7.79296875 10.4296875 C7.83251109 12.76268575 7.83698607 15.09676939 7.79296875 17.4296875 C3.83296875 17.4296875 -0.12703125 17.4296875 -4.20703125 17.4296875 C-4.37203125 16.3571875 -4.53703125 15.2846875 -4.70703125 14.1796875 C-5.6466864 11.00674237 -6.70915328 9.64319829 -9.58203125 7.9921875 C-17.45100562 4.67893514 -25.88357266 5.79517144 -33.66015625 8.7734375 C-34.170625 8.99 -34.68109375 9.2065625 -35.20703125 9.4296875 C-35.68835737 14.30265599 -35.68835737 14.30265599 -33.6328125 18.53515625 C-30.56312843 20.93257457 -27.92630322 21.58878592 -24.14453125 22.4921875 C-22.7981658 22.82677753 -21.45181172 23.16141329 -20.10546875 23.49609375 C-18.80611148 23.80780025 -17.50663929 24.11902823 -16.20703125 24.4296875 C-6.31515233 26.87197522 1.6576105 28.87736994 7.79296875 37.4296875 C9.75921036 41.36217072 9.12157152 46.13351056 8.79296875 50.4296875 C7.05497187 55.64367815 4.2353038 58.26879525 -0.20703125 61.4296875 C-12.17080234 67.30662769 -24.94644747 66.68880596 -37.40234375 62.6953125 C-42.38466362 60.44702331 -46.01548957 57.47023336 -48.20703125 52.4296875 C-48.73615228 49.0854371 -48.98129363 45.81575178 -49.20703125 42.4296875 C-45.24703125 42.4296875 -41.28703125 42.4296875 -37.20703125 42.4296875 C-36.95953125 44.0384375 -36.95953125 44.0384375 -36.70703125 45.6796875 C-35.77831223 48.75256319 -34.78168333 50.20749959 -32.01953125 51.8671875 C-25.14709322 54.76944195 -16.61811678 54.6182653 -9.49609375 52.69921875 C-6.34620083 51.30621556 -4.51144957 50.10617266 -3.08203125 46.9296875 C-3.22296419 44.11102864 -3.67690278 42.78805065 -5.20703125 40.4296875 C-11.16031776 37.08749156 -18.28247287 35.90663498 -24.89453125 34.4296875 C-34.31532875 32.29700642 -41.5705185 29.83569787 -47.20703125 21.4296875 C-48.9875437 16.08815015 -48.91212248 11.35880361 -46.64453125 6.2421875 C-43.21937172 0.17680084 -38.4875754 -2.37054783 -31.95703125 -4.3828125 C-20.95233642 -7.0359992 -9.5397118 -6.43597323 0 0 Z " fill="#49264E" transform="translate(1240.20703125,990.5703125)"/>
<path d="M0 0 C6.0579938 4.9373759 8.39286497 9.80424221 9.6953125 17.48828125 C9.77749975 19.14463425 9.81321358 20.80377319 9.80883789 22.4621582 C9.80876236 23.42277664 9.80868683 24.38339508 9.80860901 25.37312317 C9.80344772 26.39725815 9.79828644 27.42139313 9.79296875 28.4765625 C9.7915538 29.53489792 9.79013885 30.59323334 9.78868103 31.68363953 C9.78309409 35.05604914 9.77054394 38.42839179 9.7578125 41.80078125 C9.75279581 44.09049383 9.7482332 46.38020746 9.74414062 48.66992188 C9.73312893 54.27606737 9.71587322 59.88216297 9.6953125 65.48828125 C5.7353125 65.48828125 1.7753125 65.48828125 -2.3046875 65.48828125 C-2.3140332 64.13669922 -2.32337891 62.78511719 -2.33300781 61.39257812 C-2.37303796 56.35286132 -2.43883338 51.3137466 -2.51220703 46.27441406 C-2.54034117 44.09806076 -2.5615931 41.92160672 -2.57568359 39.74511719 C-2.59721756 36.60690007 -2.64392256 33.46988462 -2.6953125 30.33203125 C-2.69654114 29.36712769 -2.69776978 28.40222412 -2.69903564 27.40808105 C-2.82961307 21.31348955 -3.7874351 16.56497815 -7.3046875 11.48828125 C-10.99884577 8.39317568 -14.53692668 7.73070977 -19.3046875 7.48828125 C-24.75321319 8.16406738 -29.06390007 9.92216455 -33.3046875 13.48828125 C-36.7814924 18.25361448 -38.38381927 22.86523731 -38.51000977 28.70605469 C-38.52995499 29.52660339 -38.54990021 30.3471521 -38.57044983 31.19256592 C-38.58716232 32.06874573 -38.60387482 32.94492554 -38.62109375 33.84765625 C-38.64187485 34.7520343 -38.66265594 35.65641235 -38.68406677 36.5881958 C-38.7493469 39.4714818 -38.80834702 42.35485735 -38.8671875 45.23828125 C-38.91039321 47.19532169 -38.95400815 49.15235313 -38.99804688 51.109375 C-39.10500622 55.90225245 -39.20633423 60.69521979 -39.3046875 65.48828125 C-42.9346875 65.48828125 -46.5646875 65.48828125 -50.3046875 65.48828125 C-50.3046875 42.71828125 -50.3046875 19.94828125 -50.3046875 -3.51171875 C-46.6746875 -3.51171875 -43.0446875 -3.51171875 -39.3046875 -3.51171875 C-38.9746875 -0.87171875 -38.6446875 1.76828125 -38.3046875 4.48828125 C-37.4384375 3.72515625 -36.5721875 2.96203125 -35.6796875 2.17578125 C-25.6257697 -6.1748846 -11.08780068 -7.27284553 0 0 Z " fill="#49264E" transform="translate(305.3046875,989.51171875)"/>
<path d="M0 0 C3.63 0 7.26 0 11 0 C11.01981934 1.18964355 11.03963867 2.37928711 11.06005859 3.60498047 C11.13668608 8.05944389 11.22531087 12.51360471 11.31738281 16.96777344 C11.35543823 18.88795963 11.39032996 20.80821144 11.421875 22.72851562 C11.46803929 25.50414331 11.52594339 28.27932825 11.5859375 31.0546875 C11.59748871 31.8998996 11.60903992 32.74511169 11.62094116 33.61593628 C11.79009642 40.5975986 12.1413934 47.92368564 15.8125 54 C19.81295197 57.65755609 23.51335433 58.47014092 28.9453125 58.31640625 C33.64057062 57.59337221 36.96573777 55.06299174 40.25 51.6875 C44.54417642 45.09287193 45.45574335 39.86017257 45.51171875 32.12890625 C45.52966995 31.206577 45.54762115 30.28424774 45.56611633 29.33396912 C45.61996736 26.41019152 45.65403385 23.4865748 45.6875 20.5625 C45.72069534 18.57094128 45.75518704 16.57940371 45.79101562 14.58789062 C45.87567926 9.72537697 45.94261026 4.86290893 46 0 C49.96 0 53.92 0 58 0 C58 22.77 58 45.54 58 69 C54.04 69 50.08 69 46 69 C45.505 65.535 45.505 65.535 45 62 C44.50371094 62.40992188 44.00742188 62.81984375 43.49609375 63.2421875 C35.85325487 69.30424945 28.69977431 71.0525854 19 70 C12.79712146 68.51166564 8.33094513 66.08866219 4.25390625 61.171875 C-0.0074539 53.79082751 -0.41343675 47.42058958 -0.29296875 39.0625 C-0.28872391 37.94182129 -0.28447906 36.82114258 -0.28010559 35.66650391 C-0.26340311 32.11075126 -0.22576568 28.55557941 -0.1875 25 C-0.17244231 22.57943531 -0.1587558 20.15886167 -0.14648438 17.73828125 C-0.11352706 11.82529935 -0.06180241 5.91274792 0 0 Z " fill="#49264E" transform="translate(990,986)"/>
<path d="M0 0 C3.63 0 7.26 0 11 0 C11.01981934 1.18964355 11.03963867 2.37928711 11.06005859 3.60498047 C11.13668608 8.05944389 11.22531087 12.51360471 11.31738281 16.96777344 C11.35543823 18.88795963 11.39032996 20.80821144 11.421875 22.72851562 C11.46803929 25.50414331 11.52594339 28.27932825 11.5859375 31.0546875 C11.59748871 31.8998996 11.60903992 32.74511169 11.62094116 33.61593628 C11.79009642 40.5975986 12.1413934 47.92368564 15.8125 54 C19.81295197 57.65755609 23.51335433 58.47014092 28.9453125 58.31640625 C33.64057062 57.59337221 36.96573777 55.06299174 40.25 51.6875 C44.54417642 45.09287193 45.45574335 39.86017257 45.51171875 32.12890625 C45.52966995 31.206577 45.54762115 30.28424774 45.56611633 29.33396912 C45.61996736 26.41019152 45.65403385 23.4865748 45.6875 20.5625 C45.72069534 18.57094128 45.75518704 16.57940371 45.79101562 14.58789062 C45.87567926 9.72537697 45.94261026 4.86290893 46 0 C49.96 0 53.92 0 58 0 C58 22.77 58 45.54 58 69 C54.04 69 50.08 69 46 69 C45.505 65.535 45.505 65.535 45 62 C44.50371094 62.40992188 44.00742187 62.81984375 43.49609375 63.2421875 C35.85325487 69.30424945 28.69977431 71.0525854 19 70 C12.79712146 68.51166564 8.33094513 66.08866219 4.25390625 61.171875 C-0.0074539 53.79082751 -0.41343675 47.42058958 -0.29296875 39.0625 C-0.28872391 37.94182129 -0.28447906 36.82114258 -0.28010559 35.66650391 C-0.26340311 32.11075126 -0.22576568 28.55557941 -0.1875 25 C-0.17244231 22.57943531 -0.1587558 20.15886167 -0.14648438 17.73828125 C-0.11352706 11.82529935 -0.06180241 5.91274792 0 0 Z " fill="#49264E" transform="translate(547,986)"/>
<path d="M0 0 C3.96 0 7.92 0 12 0 C12.01458252 1.35158203 12.02916504 2.70316406 12.04418945 4.09570312 C12.10239116 9.1353532 12.17962268 14.17456668 12.26245117 19.21386719 C12.29559781 21.39022711 12.32366134 23.56667088 12.34643555 25.74316406 C12.38017038 28.88122103 12.4324962 32.01851675 12.48828125 35.15625 C12.49467117 36.12115356 12.5010611 37.08605713 12.50764465 38.0802002 C12.63580858 44.03931747 13.41076411 48.59782795 16 54 C19.33188253 56.97441199 22.60722551 58.22412478 27.0625 58.4375 C33.72128176 57.69763536 37.25287443 55.12491592 41.60546875 50.3046875 C45.52082152 43.83393642 46.45284461 37.02176474 46.51171875 29.58984375 C46.52966995 28.73693253 46.54762115 27.8840213 46.56611633 27.00526428 C46.61973167 24.31605789 46.65395636 21.62702384 46.6875 18.9375 C46.7207163 17.09958563 46.75520986 15.26169387 46.79101562 13.42382812 C46.87542916 8.9493442 46.94247048 4.47490703 47 0 C50.63 0 54.26 0 58 0 C58 22.77 58 45.54 58 69 C54.37 69 50.74 69 47 69 C46.505 65.04 46.505 65.04 46 61 C45.5875 61.39832031 45.175 61.79664063 44.75 62.20703125 C37.96142908 68.43493894 31.9855153 70.5709866 22.74609375 70.2890625 C16.40346871 69.62141776 10.40374315 67.77072174 6 63 C2.34842655 56.78610086 -0.132224 51.30291112 -0.11352539 44.04785156 C-0.11344986 43.06713684 -0.11337433 42.08642212 -0.11329651 41.07598877 C-0.10813522 40.02481873 -0.10297394 38.97364868 -0.09765625 37.890625 C-0.0962413 36.80867859 -0.09482635 35.72673218 -0.09336853 34.61199951 C-0.08777318 31.1579715 -0.0752215 27.70400841 -0.0625 24.25 C-0.0574844 21.90755302 -0.0529216 19.56510502 -0.04882812 17.22265625 C-0.03780527 11.48174583 -0.02054379 5.74088392 0 0 Z " fill="#49264E" transform="translate(1627,986)"/>
<path d="M0 0 C3.63 0 7.26 0 11 0 C11 7.26 11 14.52 11 22 C18.26 22 25.52 22 33 22 C33 25.63 33 29.26 33 33 C25.74 33 18.48 33 11 33 C11.09732326 38.26570076 11.20029275 43.5306846 11.31738281 48.79589844 C11.35548767 50.58424313 11.39037162 52.37265965 11.421875 54.16113281 C11.46793013 56.74309835 11.52585428 59.32457725 11.5859375 61.90625 C11.59748871 62.69616333 11.60903992 63.48607666 11.62094116 64.29992676 C11.65230387 72.73854879 11.65230387 72.73854879 15 80 C18.33618231 80.14257189 21.65975606 80.04228157 25 80 C25 83.63 25 87.26 25 91 C17.85345822 92.78663545 11.49004644 92.65514811 5 89 C1.28820561 85.09785718 -0.12713638 82.58318718 -0.11352539 77.27490234 C-0.11344986 76.29403656 -0.11337433 75.31317078 -0.11329651 74.30258179 C-0.10813522 73.24108917 -0.10297394 72.17959656 -0.09765625 71.0859375 C-0.0962413 70.00116119 -0.09482635 68.91638489 -0.09336853 67.79873657 C-0.08775802 64.32413 -0.07520372 60.84958719 -0.0625 57.375 C-0.05748635 55.02343843 -0.05292321 52.67187585 -0.04882812 50.3203125 C-0.03778517 44.54685032 -0.02051347 38.77343598 0 33 C-5.61 33 -11.22 33 -17 33 C-17 29.37 -17 25.74 -17 22 C-12.05 21.67 -7.1 21.34 -2 21 C-1.11360611 18.34081834 -0.82010975 16.51935359 -0.68359375 13.76953125 C-0.64169922 12.96708984 -0.59980469 12.16464844 -0.55664062 11.33789062 C-0.51732422 10.50451172 -0.47800781 9.67113281 -0.4375 8.8125 C-0.39431641 7.96751953 -0.35113281 7.12253906 -0.30664062 6.25195312 C-0.20068482 4.16815567 -0.0998498 2.08409897 0 0 Z " fill="#49264E" transform="translate(1297,964)"/>
<path d="M0 0 C3.96 0 7.92 0 12 0 C12 22.77 12 45.54 12 69 C8.04 69 4.08 69 0 69 C0 46.23 0 23.46 0 0 Z " fill="#4A274E" transform="translate(201,986)"/>
<path d="M0 0 C2.9375 2.125 2.9375 2.125 5 5 C5.125 8.125 5.125 8.125 4 11 C0.99296314 13.74171008 -0.54357633 14.01573875 -4.625 13.875 C-8 13 -8 13 -9.9375 11.8125 C-11.5339636 9.08912093 -11.38630872 7.09046979 -11 4 C-7.99355205 0.03695498 -4.84484827 -0.56998215 0 0 Z " fill="#49264E" transform="translate(210,958)"/>
</svg>
